<svg width="118" height="24" viewBox="0 0 118 24" fill="none" xmlns="http://www.w3.org/2000/svg">
<path d="M7.84 15.552H3.072L2.208 18H0.256L4.416 6.88H6.512L10.656 18H8.704L7.84 15.552ZM7.328 14.144L5.456 8.864L3.584 14.144H7.328ZM17.0663 9.072C17.8343 9.072 18.5169 9.25333 19.1143 9.616C19.7223 9.97867 20.1969 10.5013 20.5383 11.184C20.8796 11.8667 21.0503 12.6667 21.0503 13.584C21.0503 14.512 20.8796 15.3173 20.5383 16C20.1969 16.6827 19.7223 17.2053 19.1143 17.568C18.5169 17.9307 17.8343 18.112 17.0663 18.112C16.2663 18.112 15.5836 17.9147 15.0182 17.52C14.4529 17.1253 14.0583 16.6027 13.8343 15.952V22.192H12.0103V9.184H13.8343V11.232C14.0583 10.5813 14.4529 10.0587 15.0182 9.664C15.5836 9.26933 16.2663 9.072 17.0663 9.072ZM16.5063 10.672C15.9943 10.672 15.5356 10.7947 15.1302 11.04C14.7249 11.2747 14.4049 11.616 14.1703 12.064C13.9356 12.5013 13.8183 13.008 13.8183 13.584C13.8183 14.1707 13.9356 14.6827 14.1703 15.12C14.4049 15.5573 14.7249 15.8987 15.1302 16.144C15.5356 16.3787 15.9943 16.496 16.5063 16.496C17.3169 16.496 17.9676 16.24 18.4583 15.728C18.9489 15.2053 19.1943 14.4907 19.1943 13.584C19.1943 12.688 18.9489 11.9787 18.4583 11.456C17.9676 10.9333 17.3169 10.672 16.5063 10.672ZM27.8631 9.072C28.6311 9.072 29.3138 9.25333 29.9111 9.616C30.5191 9.97867 30.9938 10.5013 31.3351 11.184C31.6765 11.8667 31.8471 12.6667 31.8471 13.584C31.8471 14.512 31.6765 15.3173 31.3351 16C30.9938 16.6827 30.5191 17.2053 29.9111 17.568C29.3138 17.9307 28.6311 18.112 27.8631 18.112C27.0631 18.112 26.3805 17.9147 25.8151 17.52C25.2498 17.1253 24.8551 16.6027 24.6311 15.952V22.192H22.8071V9.184H24.6311V11.232C24.8551 10.5813 25.2498 10.0587 25.8151 9.664C26.3805 9.26933 27.0631 9.072 27.8631 9.072ZM27.3031 10.672C26.7911 10.672 26.3325 10.7947 25.9271 11.04C25.5218 11.2747 25.2018 11.616 24.9671 12.064C24.7325 12.5013 24.6151 13.008 24.6151 13.584C24.6151 14.1707 24.7325 14.6827 24.9671 15.12C25.2018 15.5573 25.5218 15.8987 25.9271 16.144C26.3325 16.3787 26.7911 16.496 27.3031 16.496C28.1138 16.496 28.7645 16.24 29.2551 15.728C29.7458 15.2053 29.9911 14.4907 29.9911 13.584C29.9911 12.688 29.7458 11.9787 29.2551 11.456C28.7645 10.9333 28.1138 10.672 27.3031 10.672ZM35.428 6.16V18H33.604V6.16H35.428ZM38.6753 9.184L41.3153 15.664L43.7633 9.184H45.7953L40.4673 22.192H38.4353L40.3393 17.792L36.6273 9.184H38.6753ZM59.8806 18H58.0566L52.5686 9.664V18H50.7446V6.72H52.5686L58.0566 15.088V6.72H59.8806V18ZM66.1204 9.072C66.9737 9.072 67.7417 9.25333 68.4244 9.616C69.107 9.97867 69.6404 10.5013 70.0244 11.184C70.4084 11.8667 70.6004 12.6667 70.6004 13.584C70.6004 14.512 70.4084 15.3173 70.0244 16C69.6404 16.6827 69.107 17.2053 68.4244 17.568C67.7417 17.9307 66.9737 18.112 66.1204 18.112C65.267 18.112 64.499 17.9307 63.8164 17.568C63.1444 17.2053 62.611 16.6827 62.2164 16C61.8324 15.3067 61.6404 14.5013 61.6404 13.584C61.6404 12.6667 61.8324 11.8667 62.2164 11.184C62.611 10.5013 63.1444 9.97867 63.8164 9.616C64.499 9.25333 65.267 9.072 66.1204 9.072ZM66.1204 10.656C65.651 10.656 65.219 10.7627 64.8244 10.976C64.4297 11.1893 64.1097 11.52 63.8644 11.968C63.6297 12.4053 63.5124 12.944 63.5124 13.584C63.5124 14.2347 63.6297 14.7787 63.8644 15.216C64.1097 15.6533 64.4297 15.9787 64.8244 16.192C65.219 16.4053 65.651 16.512 66.1204 16.512C66.5897 16.512 67.0217 16.4053 67.4164 16.192C67.811 15.9787 68.1257 15.6533 68.3604 15.216C68.6057 14.7787 68.7284 14.2347 68.7284 13.584C68.7284 12.944 68.6057 12.4053 68.3604 11.968C68.1257 11.52 67.811 11.1893 67.4164 10.976C67.0217 10.7627 66.5897 10.656 66.1204 10.656ZM84.706 9.184L82.258 18H80.242L78.066 11.184L75.858 18H73.858L71.41 9.184H73.25L74.93 16.32L77.138 9.184H79.058L81.298 16.32L82.978 9.184H84.706Z" fill="#5D5FEF"/>
<path d="M117.354 14.3536C117.549 14.1583 117.549 13.8417 117.354 13.6464L114.172 10.4645C113.976 10.2692 113.66 10.2692 113.464 10.4645C113.269 10.6597 113.269 10.9763 113.464 11.1716L116.293 14L113.464 16.8284C113.269 17.0237 113.269 17.3403 113.464 17.5355C113.66 17.7308 113.976 17.7308 114.172 17.5355L117.354 14.3536ZM97 14.5L117 14.5V13.5L97 13.5V14.5Z" fill="#232536"/>
</svg>
